<svg width="16" height="16" viewBox="0 0 16 16" fill="none" xmlns="http://www.w3.org/2000/svg">
<path d="M2.66669 8.00004C2.66669 8.17685 2.73693 8.34642 2.86195 8.47145C2.98697 8.59647 3.15654 8.66671 3.33335 8.66671H8.39335L6.86002 10.1934C6.79753 10.2553 6.74794 10.3291 6.71409 10.4103C6.68025 10.4916 6.66282 10.5787 6.66282 10.6667C6.66282 10.7547 6.68025 10.8419 6.71409 10.9231C6.74794 11.0043 6.79753 11.0781 6.86002 11.14C6.922 11.2025 6.99573 11.2521 7.07697 11.286C7.15821 11.3198 7.24535 11.3372 7.33335 11.3372C7.42136 11.3372 7.5085 11.3198 7.58974 11.286C7.67098 11.2521 7.74471 11.2025 7.80669 11.14L10.4734 8.47337C10.534 8.40997 10.5816 8.33521 10.6134 8.25337C10.68 8.09107 10.68 7.90902 10.6134 7.74671C10.5816 7.66487 10.534 7.59011 10.4734 7.52671L7.80669 4.86004C7.74453 4.79788 7.67073 4.74857 7.58952 4.71493C7.50831 4.68129 7.42126 4.66398 7.33335 4.66398C7.24545 4.66398 7.1584 4.68129 7.07719 4.71493C6.99597 4.74857 6.92218 4.79788 6.86002 4.86004C6.79786 4.9222 6.74855 4.99599 6.71491 5.07721C6.68127 5.15842 6.66396 5.24547 6.66396 5.33337C6.66396 5.42128 6.68127 5.50833 6.71491 5.58954C6.74855 5.67076 6.79786 5.74455 6.86002 5.80671L8.39335 7.33337H3.33335C3.15654 7.33337 2.98697 7.40361 2.86195 7.52864C2.73693 7.65366 2.66669 7.82323 2.66669 8.00004V8.00004ZM11.3334 1.33337H4.66669C4.13625 1.33337 3.62755 1.54409 3.25247 1.91916C2.8774 2.29423 2.66669 2.80294 2.66669 3.33337V5.33337C2.66669 5.51019 2.73693 5.67975 2.86195 5.80478C2.98697 5.9298 3.15654 6.00004 3.33335 6.00004C3.51016 6.00004 3.67973 5.9298 3.80476 5.80478C3.92978 5.67975 4.00002 5.51019 4.00002 5.33337V3.33337C4.00002 3.15656 4.07026 2.98699 4.19528 2.86197C4.32031 2.73695 4.48988 2.66671 4.66669 2.66671H11.3334C11.5102 2.66671 11.6797 2.73695 11.8048 2.86197C11.9298 2.98699 12 3.15656 12 3.33337V12.6667C12 12.8435 11.9298 13.0131 11.8048 13.1381C11.6797 13.2631 11.5102 13.3334 11.3334 13.3334H4.66669C4.48988 13.3334 4.32031 13.2631 4.19528 13.1381C4.07026 13.0131 4.00002 12.8435 4.00002 12.6667V10.6667C4.00002 10.4899 3.92978 10.3203 3.80476 10.1953C3.67973 10.0703 3.51016 10 3.33335 10C3.15654 10 2.98697 10.0703 2.86195 10.1953C2.73693 10.3203 2.66669 10.4899 2.66669 10.6667V12.6667C2.66669 13.1971 2.8774 13.7058 3.25247 14.0809C3.62755 14.456 4.13625 14.6667 4.66669 14.6667H11.3334C11.8638 14.6667 12.3725 14.456 12.7476 14.0809C13.1226 13.7058 13.3334 13.1971 13.3334 12.6667V3.33337C13.3334 2.80294 13.1226 2.29423 12.7476 1.91916C12.3725 1.54409 11.8638 1.33337 11.3334 1.33337Z" fill="#484038"/>
</svg>
